<svg xmlns="http://www.w3.org/2000/svg" viewBox="0 0 512 512"><path fill="#9d9ae8" d="M131.192 176.821V94.322H69.049v82.499c-25.099 11.715-42.5 37.164-42.5 66.69v257.16c0 .672.545 1.217 1.217 1.217h144.711c.672 0 1.217-.545 1.217-1.217V243.51c-.002-29.526-17.403-54.975-42.502-66.689z"/><path fill="#ff7d97" d="M26.548 265.811h147.144v182.043H26.548zM58.38 52.756h83.48v41.566H58.38z"/><path fill="#ffa96b" d="M69.049 10.113h62.143v42.643H69.049z"/><g fill="#9d9ae8"><circle cx="100.12" cy="356.66" r="25.958"/><circle cx="336.483" cy="217.622" r="37.096"/><circle cx="256.991" cy="217.622" r="37.096"/><circle cx="298.337" cy="287.814" r="37.096"/><circle cx="374.629" cy="286.796" r="37.096"/><circle cx="415.975" cy="217.622" r="37.096"/><circle cx="336.992" cy="360.375" r="37.096"/></g><path fill="#d0f2d2" fill-rule="evenodd" d="M411.339 77.913c41.418 1.219 74.18 29.864 74.18 29.864s-34.39 26.667-75.809 25.448-74.18-29.864-74.18-29.864 34.39-26.668 75.809-25.448z" clip-rule="evenodd"/><g><path d="M173.692 389.197c-5.586 0-10.113 4.528-10.113 10.113v38.43H36.662V275.925h126.917v34.047c0 5.586 4.528 10.113 10.113 10.113 5.586 0 10.113-4.528 10.113-10.113V243.51c0-30.176-16.484-58.093-42.5-72.844v-66.231h.555c5.586 0 10.113-4.528 10.113-10.113V52.757c0-5.586-4.528-10.113-10.113-10.113h-.555v-32.53C141.305 4.528 136.778 0 131.192 0H69.048c-5.586 0-10.113 4.528-10.113 10.113v32.53h-.555c-5.586 0-10.113 4.528-10.113 10.113v41.566c0 5.586 4.528 10.113 10.113 10.113h.555v66.231c-26.016 14.75-42.5 42.668-42.5 72.844v257.16c0 6.247 5.082 11.33 11.33 11.33h144.711c6.247 0 11.33-5.082 11.33-11.33V399.311c0-5.586-4.528-10.114-10.114-10.114zM68.494 84.209V62.87h63.254v21.339h-62.7zm10.668-63.982h41.917v22.416H79.162zm-5.836 165.758a10.114 10.114 0 0 0 5.836-9.164v-72.385h41.917v72.385c0 3.929 2.276 7.503 5.836 9.164 22.273 10.395 36.664 32.975 36.664 57.525v12.188H36.662V243.51c0-24.55 14.391-47.13 36.664-57.525zM36.662 491.773v-33.806h126.917v33.806z"/><circle cx="173.949" cy="354.136" r="10"/><path d="M64.049 356.66c0 19.89 16.182 36.071 36.071 36.071s36.071-16.182 36.071-36.071c0-19.89-16.182-36.072-36.071-36.072S64.049 336.77 64.049 356.66zm51.915 0c0 8.737-7.108 15.844-15.844 15.844s-15.844-7.108-15.844-15.844c0-8.737 7.108-15.845 15.844-15.845s15.844 7.109 15.844 15.845zM492.176 100.163c-1.449-1.267-36.006-31.048-80.539-32.359-31.989-.956-59.708 13.079-73.346 21.496-4.505-9.789-10.475-18.796-17.791-26.694-17.058-18.413-39.538-28.553-63.3-28.553-5.586 0-10.113 4.528-10.113 10.113s4.528 10.113 10.113 10.113c18.065 0 35.276 7.838 48.461 22.072 14.421 15.567 22.363 36.638 22.363 59.332v35.501c-13.108 2.382-24.34 10.189-31.286 21.009-8.402-13.087-23.073-21.783-39.746-21.783-26.032 0-47.21 21.178-47.21 47.21s21.178 47.21 47.21 47.21c.044 0 .087-.003.131-.003a46.903 46.903 0 0 0-5.995 22.986c0 25.656 20.574 46.582 46.088 47.181a46.911 46.911 0 0 0-7.433 25.379c0 26.032 21.178 47.21 47.209 47.21 26.032 0 47.21-21.178 47.21-47.21a46.944 46.944 0 0 0-8.094-26.406c25.349-.785 45.732-21.636 45.732-47.172a46.907 46.907 0 0 0-5.445-21.975c25.839-.227 46.791-21.308 46.791-47.199 0-26.032-21.178-47.21-47.209-47.21-16.673 0-31.344 8.696-39.746 21.783-6.355-9.899-16.293-17.289-27.979-20.298v-36.212c0-3.893-.2-7.747-.581-11.554 14.62 8.638 36.587 18.462 61.743 19.203 28.521.848 57.986-9.856 80.959-26.562 5.45-3.965 7.473-11.651 1.803-16.608zM230.008 217.622c0-14.878 12.105-26.983 26.983-26.983s26.983 12.105 26.983 26.983-12.105 26.983-26.983 26.983c-14.879 0-26.983-12.105-26.983-26.983zm41.346 70.192c0-14.878 12.105-26.982 26.983-26.982s26.982 12.104 26.982 26.982-12.104 26.983-26.982 26.983-26.983-12.105-26.983-26.983zm65.637 99.544c-14.878 0-26.982-12.105-26.982-26.983s12.104-26.982 26.982-26.982 26.983 12.104 26.983 26.982-12.104 26.983-26.983 26.983zm37.638-73.579c-14.878 0-26.983-12.105-26.983-26.983s12.105-26.982 26.983-26.982 26.983 12.104 26.983 26.982c0 14.879-12.105 26.983-26.983 26.983zm41.346-123.14c14.878 0 26.982 12.105 26.982 26.983s-12.104 26.983-26.982 26.983-26.983-12.105-26.983-26.983c0-14.879 12.104-26.983 26.983-26.983zm-52.509 26.983c0 14.878-12.105 26.983-26.983 26.983S309.5 232.5 309.5 217.622s12.105-26.983 26.983-26.983 26.983 12.104 26.983 26.983zm46.542-94.507c-23.567-.694-44.422-11.431-56.588-19.247 12.564-7.084 33.934-16.543 57.621-15.847 23.547.693 44.387 11.412 56.557 19.227-12.614 7.089-34.057 16.556-57.59 15.867z"/></g></svg>