<svg xmlns="http://www.w3.org/2000/svg" x="0" y="0" enable-background="new 0 0 512 512" version="1.1" viewBox="0 0 512 512" xml:space="preserve"><path fill="#917464" d="M208.836 467.858c-111.278 0-201.808-90.535-201.808-201.818v-37.898h497.945v37.898c0 111.284-90.536 201.818-201.818 201.818h-94.319z"/><g fill="#44C973"><path d="m374.365 234.165-.854-1.577c-4.664-8.614-7.131-18.396-7.131-28.29 0-19.295 9.398-37.495 25.14-48.685 10.13-7.208 22.081-11.018 34.563-11.018 32.927 0 59.713 26.783 59.713 59.703 0 9.864-2.461 19.644-7.118 28.283l-.853 1.583h-103.46z"/><path d="M369.393 163.559c-12.469 0-24.42-3.81-34.564-11.018-15.749-11.19-25.15-29.389-25.15-48.685 0-32.927 26.788-59.713 59.713-59.713 32.921 0 59.703 26.788 59.703 59.713a59.61 59.61 0 0 1-36.464 55.008c-7.363 3.116-15.182 4.695-23.238 4.695z"/><path d="m260.96 234.165-.854-1.58c-4.656-8.62-7.118-18.401-7.118-28.286 0-19.295 9.398-37.495 25.14-48.685 10.141-7.208 22.092-11.018 34.563-11.018 8.055 0 15.875 1.579 23.24 4.695a59.615 59.615 0 0 1 36.473 55.008c0 9.872-2.465 19.653-7.129 28.286l-.854 1.58H260.96z"/><path d="M256 163.559c-12.476 0-24.43-3.81-34.573-11.018-15.742-11.192-25.14-29.392-25.14-48.685 0-32.927 26.788-59.713 59.713-59.713 32.921 0 59.703 26.788 59.703 59.713a59.612 59.612 0 0 1-36.463 55.008c-7.354 3.116-15.173 4.695-23.24 4.695z"/><path d="m147.577 234.165-.854-1.58c-4.663-8.634-7.129-18.415-7.129-28.286 0-19.294 9.398-37.494 25.14-48.685 10.141-7.208 22.092-11.018 34.563-11.018 8.063 0 15.885 1.579 23.25 4.695a59.61 59.61 0 0 1 36.464 55.008c0 9.885-2.462 19.666-7.118 28.286l-.854 1.58H147.577z"/><path d="M142.607 163.559c-12.469 0-24.42-3.81-34.563-11.018-15.742-11.192-25.14-29.392-25.14-48.685 0-32.927 26.783-59.713 59.703-59.713s59.703 26.788 59.703 59.713a59.611 59.611 0 0 1-36.464 55.008c-7.364 3.116-15.183 4.695-23.239 4.695z"/><path d="m34.172 234.165-.853-1.583c-4.656-8.638-7.117-18.419-7.117-28.283 0-32.921 26.783-59.703 59.703-59.703 8.062 0 15.884 1.579 23.25 4.695a59.61 59.61 0 0 1 36.463 55.008c0 9.893-2.466 19.675-7.13 28.29l-.854 1.577H34.172z"/></g><path d="M501.961 221.114h-11.295a66.88 66.88 0 0 0 2.159-16.816c0-36.493-29.453-66.22-65.837-66.708a66.675 66.675 0 0 0 9.136-33.735c0-36.801-29.935-66.741-66.731-66.741-23.909 0-44.913 12.645-56.702 31.592C300.905 49.76 279.906 37.115 256 37.115c-23.909 0-44.912 12.645-56.7 31.592-11.786-18.947-32.786-31.592-56.692-31.592-36.795 0-66.731 29.94-66.731 66.741 0 12.004 3.259 23.627 9.18 33.734-36.404.459-65.881 30.198-65.881 66.709 0 5.684.737 11.342 2.159 16.816H10.039C4.495 221.114 0 225.609 0 231.153v34.886c0 115.158 93.683 208.846 208.836 208.846h94.318c55.789 0 108.236-21.724 147.681-61.17C490.277 374.272 512 321.825 512 266.039v-34.886c0-5.544-4.496-10.039-10.039-10.039zm-29.214-16.816c0 5.76-1.074 11.479-3.131 16.816h-87.053a46.73 46.73 0 0 1-3.131-16.816c0-15.078 7.346-29.301 19.655-38.051 7.908-5.626 17.243-8.601 26.997-8.601 25.731 0 46.663 20.929 46.663 46.652zm-203.581 16.816a46.815 46.815 0 0 1-3.127-16.816c0-15.078 7.346-29.301 19.651-38.048 7.919-5.628 17.255-8.604 27.001-8.604 6.3 0 12.408 1.233 18.157 3.664a46.59 46.59 0 0 1 28.506 42.987 46.753 46.753 0 0 1-3.135 16.816h-87.053zm-113.384 0a46.753 46.753 0 0 1-3.135-16.816c0-15.078 7.346-29.301 19.651-38.048 7.92-5.628 17.256-8.604 27.001-8.604 6.307 0 12.418 1.233 18.167 3.664a46.583 46.583 0 0 1 28.495 42.987c0 5.77-1.072 11.489-3.127 16.816h-87.052zM369.393 57.193c25.723 0 46.652 20.933 46.652 46.662a46.587 46.587 0 0 1-28.497 42.988c-5.747 2.431-11.856 3.663-18.155 3.663-9.744 0-19.082-2.976-27.003-8.606-12.31-8.745-19.659-22.969-19.659-38.046 0-25.729 20.931-46.661 46.662-46.661zm-113.393 0c25.723 0 46.652 20.933 46.652 46.662a46.59 46.59 0 0 1-28.501 42.99c-5.736 2.429-11.843 3.661-18.151 3.661-9.751 0-19.092-2.976-27.012-8.604-12.305-8.748-19.651-22.972-19.651-38.048.001-25.729 20.934-46.661 46.663-46.661zm-113.393 0c25.725 0 46.652 20.933 46.652 46.662a46.587 46.587 0 0 1-28.497 42.988c-5.747 2.431-11.855 3.663-18.155 3.663-9.744 0-19.082-2.976-27.001-8.604-12.305-8.748-19.651-22.972-19.651-38.048 0-25.729 20.928-46.661 46.652-46.661zM39.253 204.298c0-25.723 20.928-46.652 46.652-46.652 6.306 0 12.418 1.233 18.167 3.664a46.584 46.584 0 0 1 28.495 42.987 46.73 46.73 0 0 1-3.131 16.816H42.385a46.834 46.834 0 0 1-3.132-16.815zm452.669 61.741c0 104.088-84.681 188.767-188.767 188.767h-94.318c-104.082 0-188.757-84.68-188.757-188.767v-24.847H135.802l.032.002.029-.002h113.342l.032.002.029-.002h113.321l.032.002.029-.002H475.989l.032.002.029-.002h15.873v24.847z"/><path d="M463.422 260.258c-12.919 0-12.941 20.078 0 20.078 12.92 0 12.941-20.078 0-20.078zM431.296 260.258h-61.908c-5.544 0-10.039 4.496-10.039 10.039 0 5.544 4.496 10.039 10.039 10.039h61.908c5.544 0 10.039-4.496 10.039-10.039 0-5.544-4.495-10.039-10.039-10.039z"/></svg>